<?xml version="1.0" standalone="no"?><!DOCTYPE svg PUBLIC "-//W3C//DTD SVG 1.1//EN" "http://www.w3.org/Graphics/SVG/1.1/DTD/svg11.dtd"><svg t="1513138164718" class="icon" style="" viewBox="0 0 1024 1024" version="1.1" xmlns="http://www.w3.org/2000/svg" p-id="1424" xmlns:xlink="http://www.w3.org/1999/xlink" width="200" height="200"><defs><style type="text/css"></style></defs><path d="M512 0c-136.768 0-265.344 53.28-362.032 149.984C53.248 246.672-0.016 375.248-0.016 512s53.264 265.328 149.984 362.016C246.656 970.736 375.232 1024 512 1024c136.752 0 265.328-53.28 362.032-149.984 96.72-96.704 149.984-225.264 149.984-362.016s-53.264-265.328-149.984-362.016C777.328 53.264 648.752 0 512 0zM828.784 828.768C744.16 913.392 631.664 960 512 960c-119.664 0-232.176-46.608-316.784-131.248C110.592 744.144 63.984 631.664 63.984 512s46.608-232.144 131.232-316.768C279.824 110.608 392.336 64 512 64c119.664 0 232.16 46.608 316.784 131.248 84.624 84.608 131.232 197.104 131.232 316.752S913.408 744.144 828.784 828.768z" p-id="1425" fill="#d4237a"></path><path d="M800 480 544 480 544 224c0-17.664-14.336-32-32-32s-32 14.336-32 32l0 256L224 480c-17.664 0-32 14.336-32 32s14.336 32 32 32l256 0 0 256c0 17.664 14.336 32 32 32s32-14.336 32-32L544 544l256 0c17.664 0 32-14.336 32-32S817.664 480 800 480z" p-id="1426" fill="#d4237a"></path></svg>